<svg xmlns="http://www.w3.org/2000/svg" width="512" height="512" viewBox="0 0 512 512" style="overflow: visible;"
  data-bbox="120.36380359382542 137.76407676793647 271.26893642442064 236.47184945923183">
  <rect data-uid="o_f4215bn59_4" data-fl-background="" x="0" y="0" width="512" height="512" fill="#152b42"></rect>
  <g transform="matrix(2.209599494934082, 0, 0, 2.209599494934082, 180.87359619140625, 131.38876342773438)"
    data-uid="o_f4215bn59_5">
    <path fill="rgba(192,98,44,1)" d="M66 34.255867c0 17.0414162-13.8174362 30.8588562-30.8588562 30.8588562
					c-17.0301723 0-30.8476086-13.81744-30.8476086-30.8588562c0-17.0301743 13.8174362-30.8476105 30.8476086-30.8476105
					C52.1825638 3.4082556 66 17.2256927 66 34.255867z" transform="matrix(1, 0, 0, 1, 0, 0)" data-uid="o_f4215bn59_6">
    </path>
    <path fill="#f5d451" d="M63.7064629 33.7328911c0 17.0414162-13.8174362 30.8588524-30.8588524 30.8588524
				C15.8174362 64.5917435 2 50.7743073 2 33.7328911C2 16.7027168 15.8174362 2.8852799 32.8476105 2.8852799
				C49.8890266 2.8852799 63.7064629 16.7027168 63.7064629 33.7328911z" transform="matrix(1, 0, 0, 1, 0, 0)"
      data-uid="o_f4215bn59_7"></path>
    <path fill="#f1ba2d"
      d="M48.0621414 6.9997048l-3.016243 6.039453c7.2237053 4.1692829 12.097641 11.974966 12.097641 20.894619
				c0 13.2988129-10.8200607 24.1183281-24.1194229 24.1183281c-3.3663235 0-6.5709686-0.6988144-9.4840107-1.951149
				l-3.0172577 6.0414429c3.8228245 1.6986923 8.050457 2.6500969 12.5016117 2.6500969
				c17.0414162 0 30.8588524-13.8174362 30.8588524-30.8588562C63.8833122 22.3609447 57.4990463 12.2775421 48.0621414 6.9997048z"
      transform="matrix(1, 0, 0, 1, 0, 0)" data-uid="o_f4215bn59_8"></path>
    <path fill="#fff"
      d="M16.7331028 12.6678782c-.9770985.8062201-2.0378208 1.1217737-2.3618479.7022257-.3239918-.4195004.2147264-1.4109402 1.1918249-2.2171602s2.024292-1.1233425 2.3482819-.7038422C18.2353897 10.8686495 17.7102013 11.8616571 16.7331028 12.6678782zM13.2639179 15.5017042c-.4510374.5033369-.9836311.7559614-1.1859274.562295-.2022734-.1936455.0044241-.7582645.4554615-1.2616014.4510374-.5033379.9764099-.7556763 1.1786833-.5620308C13.9144316 14.4340334 13.7149553 14.9983673 13.2639179 15.5017042z"
      transform="matrix(1, 0, 0, 1, 0, 0)" data-uid="o_f4215bn59_9"></path>
    <path fill="#e08637" d="M32.9641533 9.6256723c-13.3572311 0-24.2242413 10.8670111-24.2242413 24.2242432
				c0 13.3632927 10.8670101 24.2352638 24.2242413 24.2352638c13.363842 0 24.2363663-10.8719711 24.2363663-24.2352638
				C57.2005196 20.4926834 46.3279953 9.6256723 32.9641533 9.6256723z" transform="matrix(1, 0, 0, 1, 0, 0)"
      data-uid="o_f4215bn59_10"></path>
    <path fill="rgba(251,228,73,1)" d="M57.1995239 33.8506813c0 13.3616524-10.8721428 24.2337799-24.2359314 24.2337799
				c-0.1296577 0-0.2593384 0-0.3868065-0.0043259c13.1865959-0.2052994 23.8490715-10.9974747 23.8490715-24.229454
				c0-13.2276421-10.6624756-24.0154743-23.8490715-24.220787c0.1274681-0.0043001 0.2571487-0.0043001 0.3868065-0.0043001
				C46.3273811 9.6255932 57.1995239 20.4933834 57.1995239 33.8506813z" transform="matrix(1, 0, 0, 1, 0, 0)"
      data-uid="o_f4215bn59_11"></path>
    <path fill="#cb6030" d="M11.518465 34.8882637c0 9.8545647 5.9036598 18.3544769 14.3697433 22.1360359
				C15.9772825 53.9877968 8.7415657 44.7541275 8.7415657 33.8497772c0-13.3538551 10.8704548-24.2243118 24.224308-24.2243118
				c3.476757 0 6.7841682 0.7337542 9.7754745 2.0657434c-2.2124252-0.6659603-4.5716705-1.0271883-6.9985733-1.0271883
				C22.3776226 10.6640215 11.518465 21.5231781 11.518465 34.8882637z" transform="matrix(1, 0, 0, 1, 0, 0)"
      data-uid="o_f4215bn59_12"></path>
    <path fill="#fff"
      d="M39.9362946 8.5132847l1.8294868 2.0761414c.0482788.0547867.1287537.0673666.1914482.0299273l2.4703941-1.4752569c.1523399-.0909739.3101234.1089277.1862526.2359695l-1.9533195 2.0033102c-.0461426.0473232-.0563011.1190891-.0251083.1773624l1.2668457 2.3666439c.0847244.1582785-.1273651.3064194-.2468109.1723919l-1.8926888-2.1237745c-.0482292-.0541153-.1280174-.066515-.1903915-.0295858l-2.3387299 1.3846207c-.1493988.0884495-.3060608-.1029434-.1898346-.2319174l1.8094292-2.0078831c.0426521-.047328.0511551-.1162739.021286-.1725483l-1.1858788-2.2341118C39.6044121 8.5258322 39.8174782 8.3784475 39.9362946 8.5132847zM50.6674881 53.9329147c.7699051-.6852722 1.6227455-.9741402 1.898983-.6428795.2762032.3312187-.1316261 1.1537399-.901535 1.8390121s-1.6116982.9750023-1.8879013.6437836C49.5007973 55.4415703 49.8975792 54.618187 50.6674881 53.9329147zM54.6878471 50.884304c.3907433.374073-.9379311 1.8587685-1.3296165 1.4837914C53.193634 52.2105217 54.2942848 50.5075264 54.6878471 50.884304z"
      transform="matrix(1, 0, 0, 1, 0, 0)" data-uid="o_f4215bn59_13"></path>
    <path fill="#c0622c" d="M50.7055588 25.4567852l-1.1206741-4.325243c0.1115189-0.17173 0.1752739-0.3735657 0.1752739-0.5931015
					c0-0.6072674-0.493969-1.0994625-1.0977249-1.0994625c-0.4956932 0-0.9153137 0.3275433-1.0534172 0.7772369
					c-0.5098724-0.8445148-1.0994492-1.6270561-1.7757797-2.3316975c-3.5532913-3.5798855-7.2323189-4.194231-11.0158234-2.3316994
					c-0.0973854 0.0477953-0.194725 0.097374-0.2921104 0.1487131l-5.3698311 3.0097895l-7.4412651 3.1886082l-0.2425308 0.1044502
					c-0.0478058 0.0212555-0.0938396 0.0442619-0.1381016 0.0708237c-0.1274681 0.0814457-0.2337132 0.1929855-0.3116035 0.3222256
					c-0.0902958 0.1522579-0.2195358 0.2744198-0.3735867 0.3576374l-4.2437973 2.2803593
					c-0.2195358 0.118618-0.3717728 0.3045139-0.4479332 0.5134277c-0.0229959 0.0637341-0.0407171 0.12924-0.0495348 0.1965179
					c-0.0460777 0.3151493 0.0601673 0.6515408 0.3328257 0.8834705c1.2375526 1.0534191 2.6981869 2.0413399 4.3464985 2.9708347
					l-0.0973835 0.5240612c-0.150507 0.819725-0.4408436 1.6075726-0.8551483 2.3281517l-2.1652737 3.7622375
					c-0.1668148 0.3118248-0.0624046 0.5592384 0.1717281 0.8091049c0.6941185 0.6835594 1.7935028 0.1132889 1.7935028 0.635601
					c0 0.1150742-0.0832062 0.2124557-0.1929951 0.2337036c-1.2623215 0.2443237-0.6267509 0.7241135 0.1929951 1.2287025
					c-0.8994083 0.7099457-0.755991 1.2180786 0 1.6093445c-2.0555267 1.6111298-1.8466244 3.1514244 0.4479332 4.6226807
					c1.2587757 0.8020248 2.9849796 1.1986084 4.9006329 1.4323082c0.3381424 0.0407181 0.644474 0.2283859 0.8303375 0.5152016
					c0.5842628 0.8870049 1.0551891 1.7917099 1.2835865 2.7318344l0.4125328 1.4535446
					c0.131012 0.4638634 0.17173 0.9472046 0.1186066 1.4252205l-0.0726604 0.6562424
					c-0.0210056 0.1892357 0.1841793 0.3203468 0.3470917 0.2218361l5.3060741-3.208004
					c0.4691582-0.283268 0.7808037-0.7524452 0.8693275-1.2782784c0.1199799 0.6701775 0.5065689 1.1462936 1.016201 1.4039879
					c-0.0566254 0.0495644-0.0955696 0.1256943-0.1433754 0.1788063c-0.4556236 0.4847374-1.868351 0.7786713-2.6910973 1.3384705
					c-0.6829967 0.4612694-0.7166557 1.0161285-0.5541763 1.2233963c0.0531216 0.065506 0.1416454 0.1062241 0.2230797 0.08675
					c0.0584393-0.0159378 0.1044731-0.0566559 0.150507-0.0956001c0.1865788-0.1493034 0.3794308-0.2299576 0.950716-0.5187454
					c0.1978798-0.0982437 0.7783012-0.3728943 0.9454422-0.2266235c0.092823 0.0773926 0.1799927 0.53619 0.7400436 1.3986702
					c0.1682091 0.2549629 0.2746429 0.3298492 0.7046394 0.2903481c0.1000061-0.0086784 0.1557465-0.0196304 0.2301712-0.120388
					c0.2492714-0.3305779 0.0606232-0.6569481-0.0548935-0.9347992c-0.5079575-1.1961746 0.0896416-1.8968811-0.1628723-2.4892731
					c0.7311821 0.2071419 1.5650635 0.0477943 2.2555733 0.3806419c0.1894493 0.0902977 0.3841743 0.2939034 0.2921066 0.483345
					c-0.3299294-0.0319328-0.6669922-0.0087738-0.9897461 0.0694923c-0.3847694 0.0932999-0.5587654 0.6537056 0.2284393 0.7944946
					c1.2032433 0.2191277 1.5021591-0.0919495 1.6022797-0.1115417c0.4691963-0.2549438 0.7259064-0.7559891 0.7117271-1.2711906
					c0.3199081 0.4798889 0.5018082 0.6583366 1.186203 0.7860756c1.408989 0.2627449 1.9437714-0.1338806 2.521183-0.8197136
					c0.333725-0.3995895 0.8686409-1.0431786 1.3986511-1.0941582c0.4726486-0.0406723 0.9187241 0.3897018 0.8887749 0.7188072
					c-0.0141754 0.1681976-0.1380997 0.3045273-0.2142181 0.4550133c-0.2871246 0.5689926 0.4793243 0.6919327 0.8073425 0.2000618
					c0.2442169-0.3720665 0.2385979-1.1591911 0.1203766-1.5420685c-0.0658607-0.2129288-0.3121338-0.7166824-0.520546-0.8445129
					c-0.1787758-0.1115417-0.4071732-0.0885239-0.6196632-0.097374c-0.2035866-0.0070877-0.4053993-0.046032-0.6108017-0.0407295
					c-0.799305 0.0197411-1.22435 0.609787-2.4715614 0.8622284c0.7506638-0.3552933 1.5029297-0.8871918 2.0997887-1.4553261
					c0.2371216 0.2371521 0.5740395 0.2549095 0.9029121 0.2602615c0.4196205 0.0070801 0.8427429 0.0070801 1.2535019-0.0761375
					c0.7039909-0.1419945 1.1434822-0.5072975 1.2889023-0.7701492c0.1419563-0.2517967 0.1794167-0.7676849 0.1796837-1.0567474
					c0.0002213-0.2973022 0.0283318-0.7777786-0.1991768-0.995224c-0.0814362-0.0761299-0.2018127-0.116848-0.3062859-0.0796623
					c-0.0548515 0.0194702-0.1009293 0.0584183-0.1469193 0.097374c-0.1151085 0.1009178-0.2319412 0.2000618-0.3470497 0.2992058
					c-0.022995 0.0212479-0.046032 0.0407181-0.0690269 0.0601921c0.0053139-0.4018898-0.0053177-0.8232613 0.1983109-1.166729
					c0.194725-0.3310776 0.5789032-0.5364571 0.9631233-0.534687c0.1008835 0.0017738 0.2089005 0.0177116 0.2885628 0.0796738
					c0.0531235 0.0389442 0.0902977 0.0956001 0.1256981 0.150486c0.0566673 0.0849915 0.1115608 0.1699677 0.1682281 0.2567177
					c0.0991135 0.1522598 0.2478485 0.3257713 0.4248962 0.2850456c0.1345558-0.030098 0.2124443-0.1805801 0.2089005-0.3169098
					c-0.0043259-0.1664467-0.0442886-0.2230072-0.5913506-1.2729645c-0.0796623-0.1540298-0.1610947-0.3133774-0.2938805-0.4249153
					c-0.2195358-0.1894302-0.5329132-0.2177658-0.8232498-0.2266159c-0.0902939-0.00177-0.1823616-0.0035439-0.2708855 0.021244
					c-0.0088615 0.0017738-0.0159492 0.0053177-0.0248108 0.0088501c0.023037-0.0778999 0.0442619-0.1557999 0.0584373-0.2354736
					c0.0726166-0.4125099 0-0.851593-0.2000389-1.219841c-0.1009293-0.1858978-0.2337151-0.3540916-0.3700447-0.516983
					c-0.2766342-0.3335609-0.5823593-0.6629639-1.0506058-0.7464523c-0.1708183-0.0304565-0.4416542 0.0171509-0.5481262 0.1321068
					c-0.0956116 0.0956001-0.1097488 0.2478676-0.0725746 0.3753357c0.0389442 0.1292419 0.1203804 0.2390099 0.2000427 0.3470154
					c0.1735001 0.235466 0.348774 0.4709396 0.5240936 0.7064133c0.0690269 0.0938301 0.1398277 0.1894417 0.1858635 0.2974358
					c0.0761604 0.1805916 0.0778885 0.3841896 0.0619812 0.5789452c-0.0212631 0.269104-0.0761604 0.5399895-0.2053986 0.7789993
					c-0.5652962-1.9050598-2.1643295-3.6817169-4.0720673-3.386898c-2.2021255 0.3418236-3.3639259 3.3783646-0.7063713 5.1432076
					c-0.3081017-0.9613724-0.3842201-1.8164978-0.1346016-2.5211525c0.3983536-1.0215492 1.0215607-1.3012848 1.8165436-1.0056229
					c1.7944756 0.6667824 2.7969437 3.6361198 0.3877182 5.5592651c-2.4857368 1.9935417-4.9785652 1.5774765-6.8145142-0.6214371
					c-1.4676361-1.8163681-1.855442-4.8081627-1.8289032-8.4443588c0.0520439-0.0228348 0.0574875-0.0252113 0.1095734-0.0480347
					c1.135891 1.0272369 2.6012764 1.6493721 4.1448593 1.7309914c0.7818909 0.041069 1.5703773-0.0984192 1.5703773-0.885231
					c0.0017738-0.0141678 0.0017738-0.0283241 0.0017738-0.0442619c-0.0176811-0.9879227 0.5116882-1.9050217 1.4163704-2.3016052
					c0.5375175-0.2264404 1.0445862-0.3017998 1.6412239-0.1292381c2.457428 0.7117195 4.5253181-0.7666168 6.1151886-5.2883778
					c0.4302139-1.2233963 0.6532936-2.5052109 0.6586075-3.7887974c0.1876793 0.1522579 0.4284821 0.2443256 0.6905098 0.2443256
					c0.605484 0 1.0994492-0.4921951 1.0994492-1.1012344C51.5270767 26.0074081 51.1765289 25.5771866 50.7055588 25.4567852z
					 M33.160717 21.703928c-0.0452995 0.0080948-0.0905991 0.0183601-0.1359863 0.0305481
					c0.2616386 0.1715908 0.4159927 0.569437 0.159584 0.8889942c-0.5542641 0.6908188-1.3118973 1.0988884-2.0587254 1.5337677
					c0.1746693 0.2810001 0.1224976 0.730608-0.2886086 0.8663101c-0.5539608 0.1828499-1.097765 0.2187481-1.667244 0.0885239
					c-0.3211555-0.0734596-0.4290447-0.3963985-0.3876343-0.6827488c0.0634098-0.4386292-0.9779053-1.7081661-1.5967045-1.5303326
					c-0.6890373 0.198-0.9804535-0.8734531-0.2951336-1.0704041c0.0740433-0.0212765 0.1489925-0.0442619 0.2233391-0.0660572
					c-0.0105896-0.1405106 0.0152588-0.2639484 0.065527-0.3746777c-0.0259762-0.0285072-0.0491009-0.0595417-0.0672989-0.0939045
					c-0.0014706-0.0027447-0.0024204-0.0055771-0.0038471-0.0083218c-0.1969738-0.1899052-0.2720108-0.4951-0.0959587-0.702425
					c0.0237312-0.0931606 0.0613785-0.1848602 0.1176147-0.2730598c0.1325684-0.2078972 0.3315716-0.3455982 0.4894695-0.5297661
					c0.2018585-0.2353554 0.5773468-0.1905651 0.7849522 0c0.0156479 0.0143509 0.026886 0.0307331 0.0400696 0.0462494
					c0.4769783-0.2034988 0.9895325-0.3396015 1.4780521-0.4988174c0.3080158-0.1003895 0.5341225 0.064209 0.6291294 0.29426
					c0.2377758 0.140295 0.3752289 0.4256706 0.1747551 0.7202549c-0.0665665 0.0977955-0.1469631 0.183445-0.2342758 0.2625008
					c0.4077778-0.1635494 0.8109722-0.3325996 1.2010708-0.5128765c0.0077381-0.0035877 0.0153446-0.0051212 0.0230389-0.0083313
					c0.3065891-0.2389221 0.5933819-0.5053234 0.8605099-0.7901173c0.4899864-0.5223541 1.2733841 0.2642078 0.7849503 0.7849293
					c-0.0440025 0.0469208-0.0905113 0.0912571-0.1354637 0.1371613c0.0124893 0.1389027-0.0300865 0.2858219-0.1522369 0.4161091
					c-0.0006905 0.0007248-0.0014267 0.0013828-0.0020752 0.0021076
					C33.6157379 20.7260666 33.788765 21.5917072 33.160717 21.703928z" transform="matrix(1, 0, 0, 1, 0, 0)"
      data-uid="o_f4215bn59_14"></path>
    <path fill="#fbe449" d="M31.5247345 50.6046638l-5.2832489 3.1931725
						c-0.1723194 0.1041489-0.389267-0.0344925-0.3671341-0.234623l0.0695152-0.628582
						c0.0537052-0.4783592 0.0130291-0.9616051-0.1187725-1.4253159l-0.4116154-1.4546051
						c-0.2294426-0.9388237-0.6996498-1.8434753-1.283783-2.7318497c-0.1870975-0.2863655-0.4930077-0.473484-0.8314114-0.5141602
						c-1.9150677-0.2342987-3.6414108-0.6313057-4.9007626-1.4318237c-2.2941895-1.4724998-2.5024195-3.0117149-0.4474449-4.6241379
						c-0.7549839-0.3905029-0.8997765-0.8981476 0-1.6091766c-0.8200512-0.5043907-1.4545937-0.9843788-0.1936131-1.2284393
						c0.2777729-0.053112 0.2445126-0.4595642-0.0325737-0.4702263c-0.47332-0.0600281-1.0782852 0.0831337-1.5668507-0.3986359
						c-0.0276489-0.0276566-0.0537071-0.0553131-0.0748405-0.0829811c-0.0390472-0.0455513-0.0715809-0.091114-0.0960112-0.138298
						c-0.1090012-0.1903648-0.1090012-0.3856163-0.0016289-0.5873718l2.1656446-3.7634201
						c0.4149113-0.7207909 0.7045345-1.5082989 0.8558407-2.3283405l0.0960121-0.523922l0.1350193-0.0764675
						c0.097641-0.1822319 0.2213001-0.3547001 0.3774929-0.4897499c0.2977676-0.2538242 0.6931343-0.3579578 1.0722561-0.4555798
						c0.2749653-0.0699615 0.5483017-0.1383057 0.8249359-0.1985073c1.0087776-0.2147751 2.0500889-0.2831097 3.0784092-0.2033844
						c0.3726063 0.0292854 0.7484303 0.0781059 1.0999031 0.2033844c0.3807106 0.1350498 0.725668 0.3547001 1.0624828 0.5694752
						c0.6052666 0.3856163 1.1731148 0.8232994 1.7116852 1.2967834c0.5792065 0.5076447 1.1942463 0.9843769 1.7263012 1.5473461
						c0.5027809 0.5304184 0.8428135 1.197525 1.296772 1.770256c0.6329556 0.7988892 0.8298244 1.8581161 0.8834896 2.8766632
						c0.0293159 0.5418091 0.0114021 1.1243057-0.3042412 1.5652466c-0.5115089 0.717762-2.7524624 0.6228752-2.2258244 1.9394684
						c0.320528 0.795639 1.3260479 1.6856422 1.6287022 2.489418c0.7112961 1.8854599 0.0001926 2.6789703-0.1464615 3.1679153
						c-0.3909988 1.2866096 0.7950783 2.0050774 1.0283203 2.8457489c0.0374222 0.1350517 0.055336 0.2733459 0.0666962 0.4132729
						C32.4700737 49.5796089 32.1218987 50.2434464 31.5247345 50.6046638z" transform="matrix(1, 0, 0, 1, 0, 0)"
      data-uid="o_f4215bn59_15"></path>
    <path fill="#e08637"
      d="M26.0677948 52.0401077c.1327839.4638634.173502.9472084.1203785 1.4252243l-.0407162.3664856c-.1469631.019474-.2921524-.1044502-.2726593-.269104l.0690289-.628521c.0531235-.4780159.0124054-.9613609-.1186066-1.4252243l-.4125328-1.4535408c-.0814342-.331089-.1912231-.6586189-.3275089-.9826164.2478466.495739.4461174 1.0003166.5718555 1.5137558L26.0677948 52.0401077zM24.1291008 47.3235893c.3771324.5736389.7081871 1.1543465.9560776 1.7492218-.2054024-.4107513-.4461613-.8161812-.711731-1.2180824-.1876793-.2868118-.4939651-.4744835-.8321095-.5151978-1.9138813-.2337036-3.6418571-.6302872-4.9006748-1.432312-1.0002956-.6409073-1.6040516-1.2959709-1.7970047-1.9616661.302742.4833336.821476.9613609 1.5544739 1.4305267 1.2587757.8020248 2.9849777 1.1986084 4.9006329 1.432312C23.6369076 46.8491058 23.9432373 47.0367775 24.1291008 47.3235893zM23.8513927 34.6839485c-.1722012-.4264107-.4095478-.8260422-.6959934-1.1781693-.282753-.3549385-.6220303-.6606522-1.0038128-.8874512-.3851585-.2272186-.8129406-.3379593-1.2400074-.4325676-.4321518-.0888443-.8803902-.1148605-1.3516693-.133255l-.006197-.0352516c.440691-.1770992.9295292-.2339821 1.4137974-.1850529.2410011.0317688.481329.0890694.7050514.1884289.2228889.1001816.4357262.2190437.6340656.356945.3954468.2783508.727932.6311035.9929676 1.0221825.25844.3956451.4654408.82164.5861206 1.2740402L23.8513927 34.6839485zM23.6026058 35.1118088c-.1917458.200901-.4173756.3651581-.6572247.5108452-.2435055.1389008-.5075073.2487488-.7872009.318264-.0703487.0153542-.1404209.0354118-.2122021.0466347l-.2176437.0299721c-.0730515.0089569-.1470165.002182-.220665-.0004082l-.1101933-.009037-.1078491-.025692c-.2889481-.0629005-.5492954-.2249031-.7450924-.4343948L20.562252 35.51688c.2891865.0346298.5324917.1033592.7876358.1126633.2481136.0151253.4990463.0650482.7575264.0295448.2564144-.0288391.512989-.0966873.7592354-.1971664.2483101-.0960693.4884796-.2238121.7119236-.3766289L23.6026058 35.1118088z"
      transform="matrix(1, 0, 0, 1, 0, 0)" data-uid="o_f4215bn59_16"></path>
    <path fill="#e08637" transform="matrix(1, 0, 0, 1, 0, 0)" data-type="circle" data-cx="21.229" data-cy="33.83"
      data-r="0.854" d="M21.229 33.83m-0.854 0a0.854 0.854 0 1 0 1.708 0a0.854 0.854 0 1 0 -1.708 0"
      data-uid="o_f4215bn59_17"></path>
    <path fill="#e08637"
      d="M17.9484081 37.6659584c.7053661-.1500778 1.8924541-.0524025 2.1427631.7310219l-.0246696.0212059c-.8534336-.3507805-1.0246944-.6580467-2.1147575-.7198524L17.9484081 37.6659584zM18.0627708 40.7782402c.2129192.0211296.4279423.0170364.6351795-.0174026.2077541-.028038.4091511-.0856476.5952549-.1693077.188488-.0820961.3463097-.2083092.5181541-.3095436.0907669-.045887.1712875-.1072884.2642803-.1586761.0913639-.0536346.1765709-.1172295.2859287-.1665993l.025423.020298c-.0715427.2211151-.2063637.4181404-.3839664.567955-.1722412.1606636-.4057751.2305756-.6238174.2922783-.2207432.0612717-.4476433.0895805-.6714058.0860062-.2238026-.0085258-.4447441-.0400658-.653492-.1135826L18.0627708 40.7782402zM19.5950241 36.3840408c-.1531792 1.4479866-.5850677.8456612-2.6179352.5873833-.2001266-.0260391-.3986244-.0292969-.6020088-.0179062-.0911255.0048866-.1903934.0130196-.292881.0097618-.0390472-.0455513-.0715809-.091114-.0960112-.138298.1138868-.0227814.2261858-.0634575.3498449-.0976181.7505569-.2120132 1.3923855.0392227 1.9280567.2033844.9148045.2677383 1.0383148.3750839 1.2317066-.562973.0413437-.1973534.0618858-.3782768.0309048-.5678482-.0032578-.0032539-.0065155-.0065117-.0081043-.0081329 0 0 .0048466-.0016289.0048466-.0032578l-.0292759-.0130196c.0016289-.0130157.0260181-.0227814.0374184-.0162659C19.6263428 35.8065338 19.6056423 36.2840385 19.5950241 36.3840408z"
      transform="matrix(1, 0, 0, 1, 0, 0)" data-uid="o_f4215bn59_18"></path>
    <path fill="#f1ba2d"
      d="M47.9077606 24.571497c-.6524963-2.5610123-1.8321228-4.8633232-3.5584259-6.6644955-3.6446266-3.6723042-7.4210587-4.2238741-11.3081589-2.1835279l-5.369339 3.0100851-7.4406013 3.1890583-.2424316.1041355c-.0488205.0211525-.0943832.0439339-.1383171.0715904-.1285057.0813541-.2342892.1919937-.3123856.3221588-.0894966.1513252-.2196712.2749748-.3742352.3579578l-4.2434187 2.2795296c-.2196312.1187744-.3709373.3042622-.4474449.5141621-.0227613.063448-.0406771.1285343-.0487804.19524-.0471916.3156528.0585527.6524582.3319292.885128 1.2381802 1.052721 2.6976604 2.0403557 4.3459053 2.969408l6.0201702 3.047514 3.1044273 1.2805061c.2587204.1057549.5532284.0553131.7631283-.1285439l.6589317-.5841141c.1789951-.1578331.4637318-.0650864.5141811.1692123.8981133 4.0762901 3.6039886 6.2677803 6.6872444 6.4301949.8256912.0428848 1.5717812-.1038818 1.5717812-.9306908-.0323906-1.7856102 1.621254-2.8450737 3.0572357-2.4308472 2.4585228.7126579 4.5265274-.766346 6.1161804-5.2879887C48.3438072 29.060585 48.4642067 26.7566547 47.9077606 24.571497zM26.9054928 20.6681499c1.3634682-.920929 2.175375-.3839874 2.175375-.3839874 1.4383469.7565842 1.7848949 2.4438572 1.770277 3.0523815-.0032578.1740971-.1643372.3010139-.3351879.2700996-1.3895264-.2424316-2.2665005-1.8695049-2.5528679-2.4861717-.1366882-.2961292-.4490738-.47999-.7744884-.439312-.0813522.0113907-.1659641.029295-.2538319.0536957C26.8940907 20.7446175 26.8697014 20.6909313 26.9054928 20.6681499zM29.9435158 53.2352753c.015192.2535324.1762199.3530502.3005562.3217125.1211243-.030529.0845604-.1049538.6175175-.3715439.5663605-.2833023.921257-.4908714 1.2704525-.5070992.1464729-.0068054.1820755.0412827.2231178.1423721.1321526.3254738.6191368 1.3501625.8723564 1.5179863.1538391.1019554.525444.0870361.6260605.0431976.1030273-.0448875.2406044-.2430725.2342682-.4795609-.0052147-.1945839-.1018372-.3728714-.1775322-.5522079-.4269562-1.0115395-.0787506-1.7325211-.0941391-2.1662178-.0060272-.1698418-.0830078-.5632286-.3298912-.4980125-.1051941.0277901-.1527138.1484528-.2201195.2220497C32.6393509 51.5923233 29.8661289 51.9438515 29.9435158 53.2352753z"
      transform="matrix(1, 0, 0, 1, 0, 0)" data-uid="o_f4215bn59_19"></path>
    <path fill="#f1ba2d" d="M41.9669037 42.5162125c-0.2921257-0.3768501-0.668087-0.6890907-1.1149406-0.8554573
							c-0.7960587-0.2963791-1.4187813-0.0174103-1.8177261 1.0043373
							c-0.2500381 0.7053413-0.1738091 1.5602264 0.1355743 2.5219612
							c-3.6050262-2.3896103-0.1937218-6.9407463 3.0399742-4.4492874c0.7270508 0.5601692 1.2479286 1.3401604 1.5725632 2.1986542
							c0.9202499 2.4336014 0.0424309 4.3359604-1.9414101 5.9115486c-2.54002 1.9705544-4.9715919 1.9705658-7.2947197 0
							c-1.7930984-1.4866676-2.6800213-3.0509262-3.0463123-5.6357765c-0.1850224-1.305687-0.0138664-2.0321617 0.1718178-6.1198273
							l0.9355755 0.2365494c-0.0912476 4.0080605 0.2406616 7.317337 1.8168907 9.2682686
							c1.8367348 2.1996498 4.328167 2.6156807 6.814724 0.6227951
							C42.6728935 46.0706978 43.2355385 44.1527901 41.9669037 42.5162125z" transform="matrix(1, 0, 0, 1, 0, 0)"
      data-uid="o_f4215bn59_20"></path>
    <path fill="#f1ba2d" d="M44.0910416 42.0726509c-0.1271439-0.2996216-0.8213806-1.0495644-0.9093208-1.3505363
							c-0.0580254-0.1986046 0.0002556-0.3940315 0.2396202-0.4726944c0.2696342-0.0886116 0.572113-0.0168266 0.8147812 0.1303673
							c0.3555603 0.2156754 0.8227997 0.7978897 0.9862213 1.0979042c0.393177 0.7218056 0.2179108 1.318718-0.0410309 1.9606934
							c-0.1019402 0.2527313-0.2079163 0.511879-0.3950958 0.7100449c-0.3678665 0.3893929-1.0268173 0.4190941-1.1072884 0.260025
							c-0.0503731-0.0995712-0.0097122-0.3808136 0.0165329-0.4927673c0.0423698-0.180748 0.167263-0.3240814 0.2529068-0.4845047
							C44.1304092 43.0901756 44.2418175 42.4279633 44.0910416 42.0726509z" transform="matrix(1, 0, 0, 1, 0, 0)"
      data-uid="o_f4215bn59_21"></path>
    <path fill="#f1ba2d" d="M44.5930519 47.2673759c0.6786156-0.5619164 0.1753082-1.6494255 0.5952682-2.3611488
							c0.3058739-0.5183754 1.0157051-0.6367149 1.2526741-0.4549141c0.0779228 0.0597839 0.1365089 0.1683502 0.292778 0.4070854
							c0.1001015 0.1529312 0.2481003 0.3267479 0.4261818 0.2855606c0.1330643-0.030777 0.2111397-0.1795158 0.2080994-0.3160591
							c-0.0043335-0.1946526-0.0981331-0.3229561-0.5903587-1.2742233c-0.2376404-0.459259-0.4023285-0.6291122-1.117363-0.6504288
							c-0.2354965-0.007019-0.3286781 0.0114479-0.5348854 0.1675758c-0.5779991 0.4376297-1.0063934 1.0692787-1.1991882 1.7681618
							c-0.2351723 0.8524971-0.0028572 0.3947754-0.9023056 2.1429596
							c-0.0674706 0.1311378-0.3944016 0.5780334-0.3367195 0.7128296
							C42.815712 47.9950256 44.3246765 47.4896011 44.5930519 47.2673759z" transform="matrix(1, 0, 0, 1, 0, 0)"
      data-uid="o_f4215bn59_22"></path>
    <path fill="#f1ba2d"
      d="M42.696373 48.5040779c.2009621.0809364.4230156.0876045.639637.0911942.8355484.013855 1.7474403-.0158768 2.3686295-.6259918.1664314-.1634636.232666-.2955856.2828293-.5369759.0777283-.3740387.1060677-1.1332245.0254669-1.4458351-.085701-.332386-.3058395-.4247894-.4594078-.3696518-.0824203.0295906-.7158394.5610237-.8674622.7759171-.3798294.5383224-.056427.6487503-1.4937973 1.3030777-.2288437.1041756-.6008415.1944427-.785965.3636742C42.2188339 48.2308617 42.5398941 48.4410553 42.696373 48.5040779zM44.4359322 51.4514618c.1529922-.2304916.1858673-.5189514.1952744-.7954407.020237-.5948906-.0707932-.8219299-.3030548-1.2341652-.2619858-.4649963-.404171-.4340324-.9110641-.4530334-.2040405-.0076523-.4067039-.0466728-.6108208-.0413475-.5741615.0149727-1.0739174.3704071-1.601078.598423-1.5921059.6886444-3.3577232.1984558-4.0257759.5622063-.0046577.0979118.0516624.1870842.1058083.268795.6501846.9811897.7594681 1.1807823.9938507 1.3557091.454113.3389091 1.9041862.5746193 2.6857414.0421562.474926-.3235626.8707619-1.0544052 1.4794426-1.4680786.4818687-.3274956.9066353-.2529526 1.2250938.0935593.3483009.3789825.0909271.6128082-.0406303.8717918-.0977249.1923752-.0693817.4579849.1704941.4989281C44.0493279 51.7936592 44.2983818 51.6586914 44.4359322 51.4514618z"
      transform="matrix(1, 0, 0, 1, 0, 0)" data-uid="o_f4215bn59_23"></path>
    <path fill="#cb6030" d="M33.3335037 15.5753241c0.0909653 1.8844614 0.2782211 3.760869 0.5993462 5.6121511
						c0.3248596 1.850071 0.7870827 3.6749363 1.418644 5.4407635c0.624733 1.7680817 1.4184456 3.4750767 2.3523445 5.1036396
						c0.9371948 1.6271343 2.0112762 3.1773014 3.1882439 4.6523113c-1.2728996-1.3924141-2.4248009-2.9034767-3.4068031-4.5230217
						c-0.9868889-1.6163559-1.8033638-3.3384094-2.4402504-5.1240978c-0.6324768-1.787466-1.0860786-3.6367817-1.3619194-5.5093746
						C33.401947 19.3554287 33.2987061 17.4614544 33.3335037 15.5753241z" transform="matrix(1, 0, 0, 1, 0, 0)"
      data-uid="o_f4215bn59_24"></path>
    <path fill="#e08637" d="M27.5046749 35.5902748c0.0546474 0.3066254 0.1102524 0.6164894 0.2342033 0.9022217
							c0.3834667 0.8839684 1.3707199 1.3832321 2.3311539 1.4607811c0.9604321 0.0775452 1.9113255-0.1911926 2.8374271-0.4572411
							c-0.2873802-0.3738518-0.8535919-0.3041306-1.3244972-0.2795906c-1.6173019 0.0842743-2.755228-0.8495903-2.9632797-1.9677429
							c-0.1164627-0.6259232 0.0542908-2.080555-0.9489136-2.1079865
							C26.7296486 33.1149864 27.420187 35.1162224 27.5046749 35.5902748z" transform="matrix(1, 0, 0, 1, 0, 0)"
      data-uid="o_f4215bn59_25"></path>
    <path fill="#e08637" d="M28.1272678 39.085701c-0.181345 0.4883881-0.0849895 0.9510155 0.1191349 1.4312172
							c0.8632374 2.0307579 2.2132874 1.93507 1.7778053 2.5506477c-0.5503578 0.7779579-1.7631798 0.5766563-2.5354233 1.3237267
							c-0.0726357 0.0702667-0.0839844 0.1205826-0.0084648 0.202507c0.2974529 0.3226814 0.6337643 0.3294907 1.0196495 0.2805748
							c1.2306709-0.1559982 1.5244236-0.2560272 2.5460987-0.8073769c0.6618977-0.3571892 0.9365311-0.6950111 0.5515614-1.6575165
							c-0.5262184-1.3156548-1.1066475-1.1925812-1.5326385-2.0426331c-0.1465187-0.2923698-0.1477432-0.6518936-0.0091457-0.948101
							c0.2835522-0.6060066 0.4498787-0.6961288 1.4285469-0.962635c1.1823483-0.3219681 1.3136044-0.3340759 1.4543133-0.4892731
							c0.3082161-0.3399582-0.0048256-0.9862251-0.7473183-0.9247322c-0.4155998 0.03442-0.7952728 0.2576981-1.1903725 0.3753281
							C30.1381149 37.6743393 28.5684357 37.8975754 28.1272678 39.085701z" transform="matrix(1, 0, 0, 1, 0, 0)"
      data-uid="o_f4215bn59_26"></path>
    <path fill="#f1ba2d" d="M30.9487038 47.5235405c0.66078 0.1840897 1.2035637 0.7417755 1.3696899 1.407299
						c0.0496292 0.1988182 0.0677376 0.404541 0.1189613 0.6029549c0.1441116 0.5581894 0.5636482 1.038105 1.0975685 1.2555275
						c0.7791824 0.3172951 1.7106628 0.0860367 2.4683914 0.4516144c0.189518 0.0914345 0.3847809 0.295002 0.2930145 0.4843597
						c-0.3301773-0.0323029-0.6657219-0.009407-0.9883385 0.0680809c-0.1576691 0.0378685-0.2935905 0.156044-0.3208466 0.3158913
						c-0.051342 0.3010979 0.2801933 0.4317322 0.5470772 0.4802856c0.5343895 0.0972137 1.1153107 0.1488647 1.5942268-0.1073761
						c0.0029335-0.0015678 0.0058556-0.0031471 0.0087776-0.004734c0.6132011-0.3338051 0.8649025-1.0875053 0.6202202-1.741394
						c-0.2980614-0.7965393-0.9939003-1.7474365-1.2802277-1.9873657c-0.1901627-0.1593513-0.2127838-0.0631828-1.8800888-1.4065514
						c-0.3727722-0.3079948-0.7782021-0.6009674-1.0658607-0.9949684c-0.448658-0.6145172-0.546669-1.3744354-1.5139046-1.9513435
						c-0.2466927-0.1471367-0.3647327-0.1254158-0.6338215 0.0199852c-0.4813042 0.2600746-0.657959 0.4175339-0.716959 0.8661766
						c-0.0645275 0.4906693-0.1595821 1.7824364 0.0195885 2.2381096c0.0686722 0.1746483 0.1995888 0.3336029 0.3774452 0.3934822
						L30.9487038 47.5235405z" transform="matrix(1, 0, 0, 1, 0, 0)" data-uid="o_f4215bn59_27"></path>
    <path fill="#cb6030" d="M38.4202919 38.9515686c0 0.0601997-0.0048866 0.1155167-0.0162888 0.1675835
								c-1.6797562 0.2226906-4.2870369-0.6133385-5.9469604-2.6439934
								c-0.9469261-1.1568489-1.6156712-2.5935555-1.9850197-4.272686c-0.0195045-0.0894966-0.082983-0.1594582-0.1708508-0.1887474
								c-0.0862389-0.0276566-0.1773243-0.0081329-0.2456894 0.0520706l-0.7044945 0.6231689
								c-0.2456913 0.2163963-0.598753 0.2765961-0.8997765 0.1513176l-3.3192139-1.3683739l-6.4399662-3.2606506
								c-1.4530048-0.8184223-2.7514067-1.6710072-3.8757-2.5447445c-0.0601807-0.0471821-0.1187725-0.0943623-0.1773653-0.139925
								c0.0667362-0.0146484 0.1318026-0.0325451 0.1968699-0.0520687c0.0569639 0.0455627 0.1155558 0.091116 0.1757364 0.1366787
								c1.0950174 0.842823 2.3543692 1.6661205 3.7569265 2.4568768l6.4318237 3.2557735l3.3126984 1.366745
								c0.2456894 0.1008797 0.530426 0.0520592 0.7289257-0.1236572l0.7061634-0.6231728
								c0.11063-0.0992489 0.2619762-0.1301632 0.403511-0.0846119c0.1432037 0.0471916 0.2473183 0.1627064 0.2798519 0.3091488
								c0.9363918 4.2472191 3.7426758 6.6330643 7.0712509 6.8076668
								C37.9761009 38.9906158 38.2169075 38.9824829 38.4202919 38.9515686z" transform="matrix(1, 0, 0, 1, 0, 0)"
      data-uid="o_f4215bn59_28"></path>
    <path fill="#cb6030" d="M31.2871876 23.4065075c-0.012989-0.3286629-0.0536652-0.6589642-0.1318016-0.9811211
							c-0.1561928-0.6443233-0.4653206-1.2593517-0.9241657-1.7507324
							c-0.2294044-0.2456894-0.4881229-0.4637108-0.7712307-0.6459427c-0.0699539-0.0471916-0.1415348-0.091116-0.2147865-0.1301727
							l-0.055294-0.0309162c-0.0195446-0.0113792-0.0439339-0.0227699-0.0634785-0.0309048
							c-0.042305-0.0179043-0.082983-0.0325432-0.125288-0.0455627c-0.1659641-0.0504379-0.3367748-0.0748482-0.5076256-0.08461
							c-0.6866207-0.0357914-1.352108 0.1887455-1.9362411 0.5092735c-0.2960987 0.1578312-0.5727329 0.3530827-0.8379269 0.5466957
							c-0.2603474 0.1871166-0.5499306 0.335186-0.8493271 0.4588356c-0.6020088 0.2489471-1.2430649 0.3937588-1.8890495 0.5011406
							c-0.90625 0.139925-1.8288269 0.2001266-2.7497368 0.2001266l-0.2424316 0.1041355
							c-0.0488205 0.0211525-0.0943832 0.0439339-0.1383171 0.0715904c0.3937778 0.006506 0.7875175 0.0016289 1.1796284-0.0130177
							c0.6622295-0.0260296 1.3228302-0.0813541 1.9785461-0.187109c0.655714-0.1073914 1.3081322-0.2554512 1.9296856-0.5109024
							c0.3091679-0.1269073 0.6101513-0.2831097 0.8851585-0.4799881c0.2684498-0.1952515 0.5320148-0.3807297 0.8183823-0.5353031
							c0.5662174-0.3091488 1.2024288-0.5206661 1.8418579-0.4864941c0.1578197 0.0081329 0.3156414 0.0341625 0.4637318 0.0797253
							c0.0374184 0.0113907 0.0732098 0.0244007 0.1090012 0.0390472c0.0179138 0.0081348 0.0325336 0.0130196 0.0488186 0.0227814
							l0.0520382 0.0292873c0.0716209 0.0374184 0.1415749 0.0780964 0.2115269 0.1187725
							c0.2798519 0.1627083 0.5369434 0.3628445 0.7679749 0.5889988c0.4637318 0.4555893 0.7972889 1.0413322 0.976244 1.672636
							c0.0894966 0.3156528 0.1464596 0.6410675 0.1611176 0.9713593c0.0048466 0.0813522 0.0048466 0.1643353 0.0064754 0.2456894
							c0.0016289 0.0829811-0.0048866 0.1659641-0.0439339 0.2391834c-0.0488205 0.0943642-0.1399059 0.1643276-0.2424335 0.1936226
							c0.1041565-0.0260391 0.1968708-0.0943737 0.2489471-0.1903744c0.040678-0.0732098 0.0488205-0.1594505 0.0471916-0.2424316
							C31.2920742 23.5724716 31.2920742 23.4894886 31.2871876 23.4065075z M29.6926498 23.6814823
							c-0.3498058-0.1984978-0.6638203-0.4555779-0.9453392-0.7403164
							c-0.2814808-0.2863655-0.5271301-0.6036377-0.7451725-0.9388142
							c-0.2180424-0.3335571-0.4132843-0.6882591-0.5629616-1.0510921c-0.0016289-0.006506-0.0048866-0.0113907-0.0097713-0.0162678
							c-0.0162868-0.0244102-0.042305-0.0374279-0.0699539-0.0374279c-0.0179157 0-0.0358295 0.0048847-0.0504475 0.0162754
							c-0.5499325 0.3872452-1.1031609 0.7679749-1.687294 1.0966454c-0.5808372 0.3319206-1.1844749 0.6280479-1.8092842 0.8607178
							c-0.62644 0.2343006-1.2756405 0.4051399-1.9362411 0.4816189c-0.6605625 0.0797234-1.3325634 0.055315-1.9817638-0.082983
							c-0.0227623-0.0048866-0.0471916 0-0.0666962 0.0130196h-0.0016289
							c-0.4555874 0.2879848-0.9176502 0.5694752-1.4025555 0.808651c-0.4799786 0.2473183-0.9729862 0.4702263-1.4740982 0.6703529
							c-0.502779 0.2017555-1.0120735 0.3839855-1.5278435 0.5418167c-0.195241 0.0602016-0.3888531 0.1171455-0.585762 0.1708412
							c-0.0650673 0.0195236-0.1301336 0.0374203-0.1968699 0.0520687c-0.055295 0.0162659-0.1106291 0.0309143-0.1659641 0.0455627
							c-0.0227613 0.063448-0.0406771 0.1285343-0.0487804 0.19524c0.1318026-0.0325336 0.2619362-0.0667057 0.3921099-0.1008778
							c0.0651073-0.0178947 0.1301737-0.0357914 0.195241-0.055315c0.154604-0.0439339 0.3091679-0.0894966 0.4621029-0.1366787
							c0.5222845-0.1594505 1.0364256-0.3433094 1.5424623-0.5466938c0.5060368-0.2017555 1.003891-0.4279213 1.4887562-0.6768684
							c0.4783897-0.237545 0.9355659-0.5141506 1.3862686-0.7988873c0.6589737 0.1366787 1.3390789 0.1578197 2.0045662 0.0780964
							c0.6784763-0.0780964 1.3423347-0.2538242 1.9785061-0.4913692c0.6378384-0.2375565 1.2479916-0.5369434 1.8369713-0.8737373
							c0.558075-0.3205395 1.0999031-0.6687355 1.6156712-1.0510941c0.1627083 0.3400536 0.3579884 0.6557064 0.5727329 0.9583492
							c0.2375469 0.3302898 0.5060387 0.6378098 0.8038044 0.9144135c0.2960987 0.2766056 0.6247711 0.5190372 0.9811306 0.7094021
							c0.3546906 0.1952515 0.7402859 0.3303013 1.1372833 0.398634
							C30.4264603 24.0199165 30.0424938 23.8816185 29.6926498 23.6814823z" transform="matrix(1, 0, 0, 1, 0, 0)"
      data-uid="o_f4215bn59_29"></path>
    <path fill="#e08637" d="M49.8080292 26.5417118c0 0.6090488-0.4940224 1.101181-1.0992851 1.101181
							c-0.6090355 0-1.1011925-0.4921322-1.1011925-1.101181c0-0.2677498 0.0961647-0.5147591 0.2564583-0.705204
							l-1.0860939-4.1897469c-0.5298576-0.0773144-0.9371262-0.5336208-0.9371262-1.0860939
							c0-0.6071491 0.4939995-1.0992928 1.1011467-1.0992928c0.6052856 0 1.099308 0.4921436 1.099308 1.0992928
							c0 0.2206097-0.0641289 0.4223671-0.1753464 0.5939617l1.1200218 4.3255138
							C49.4573135 25.6008091 49.8080292 26.0307274 49.8080292 26.5417118z" transform="matrix(1, 0, 0, 1, 0, 0)"
      data-uid="o_f4215bn59_30"></path>
    <path fill="#fbe449" d="M31.5247345 50.6046638l-5.2832489 3.1931725
						c-0.1723194 0.1041489-0.389267-0.0344925-0.3671341-0.234623l0.0695152-0.628582
						c0.0537052-0.4783592 0.0130291-0.9616051-0.1187725-1.4253159l-0.4116154-1.4546051
						c-0.2294426-0.9388237-0.6996498-1.8434753-1.283783-2.7318497c-0.1870975-0.2863655-0.4930077-0.473484-0.8314114-0.5141602
						c-1.9150677-0.2342987-3.6414108-0.6313057-4.9007626-1.4318237c-2.2941895-1.4724998-2.5024195-3.0117149-0.4474449-4.6241379
						c-0.7549839-0.3905029-0.8997765-0.8981476 0-1.6091766c-0.8200512-0.5043907-1.4545937-0.9843788-0.1936131-1.2284393
						c0.2777729-0.053112 0.2445126-0.4595642-0.0325737-0.4702263c-0.47332-0.0600281-1.0782852 0.0831337-1.5668507-0.3986359
						c-0.0276489-0.0276566-0.0537071-0.0553131-0.0748405-0.0829811c-0.0390472-0.0455513-0.0715809-0.091114-0.0960112-0.138298
						c-0.1090012-0.1903648-0.1090012-0.3856163-0.0016289-0.5873718l2.1656446-3.7634201
						c0.4149113-0.7207909 0.7045345-1.5082989 0.8558407-2.3283405l0.0960121-0.523922l0.1350193-0.0764675
						c0.097641-0.1822319 0.2213001-0.3547001 0.3774929-0.4897499c0.2977676-0.2538242 0.6931343-0.3579578 1.0722561-0.4555798
						c0.2749653-0.0699615 0.5483017-0.1383057 0.8249359-0.1985073c1.0087776-0.2147751 2.0500889-0.2831097 3.0784092-0.2033844
						c0.3726063 0.0292854 0.7484303 0.0781059 1.0999031 0.2033844c0.3807106 0.1350498 0.725668 0.3547001 1.0624828 0.5694752
						c0.6052666 0.3856163 1.1731148 0.8232994 1.7116852 1.2967834c0.5792065 0.5076447 1.1942463 0.9843769 1.7263012 1.5473461
						c0.5027809 0.5304184 0.8428135 1.197525 1.296772 1.770256c0.6329556 0.7988892 0.8298244 1.8581161 0.8834896 2.8766632
						c0.0293159 0.5418091 0.0114021 1.1243057-0.3042412 1.5652466c-0.5115089 0.717762-2.7524624 0.6228752-2.2258244 1.9394684
						c0.320528 0.795639 1.3260479 1.6856422 1.6287022 2.489418c0.7112961 1.8854599 0.0001926 2.6789703-0.1464615 3.1679153
						c-0.3909988 1.2866096 0.7950783 2.0050774 1.0283203 2.8457489c0.0374222 0.1350517 0.055336 0.2733459 0.0666962 0.4132729
						C32.4700737 49.5796089 32.1218987 50.2434464 31.5247345 50.6046638z" transform="matrix(1, 0, 0, 1, 0, 0)"
      data-uid="o_f4215bn59_31"></path>
    <path fill="#e08637"
      d="M24.1291008 47.3235893c.3771324.5736389.7081871 1.1543465.9560776 1.7492218-.2054024-.4107513-.4461613-.8161812-.711731-1.2180824-.1876793-.2868118-.4939651-.4744835-.8321095-.5151978-1.9138813-.2337036-3.6418571-.6302872-4.9006748-1.432312-1.0002956-.6409073-1.6040516-1.2959709-1.7970047-1.9616661.302742.4833336.821476.9613609 1.5544739 1.4305267 1.2587757.8020248 2.9849777 1.1986084 4.9006329 1.432312C23.6369076 46.8491058 23.9432373 47.0367775 24.1291008 47.3235893zM23.8513927 34.6839485c-.1722012-.4264107-.4095478-.8260422-.6959934-1.1781693-.282753-.3549385-.6220303-.6606522-1.0038128-.8874512-.3851585-.2272186-.8129406-.3379593-1.2400074-.4325676-.4321518-.0888443-.8803902-.1148605-1.3516693-.133255l-.006197-.0352516c.440691-.1770992.9295292-.2339821 1.4137974-.1850529.2410011.0317688.481329.0890694.7050514.1884289.2228889.1001816.4357262.2190437.6340656.356945.3954468.2783508.727932.6311035.9929676 1.0221825.25844.3956451.4654408.82164.5861206 1.2740402L23.8513927 34.6839485zM23.6026058 35.1118088c-.1917458.200901-.4173756.3651581-.6572247.5108452-.2435055.1389008-.5075073.2487488-.7872009.318264-.0703487.0153542-.1404209.0354118-.2122021.0466347l-.2176437.0299721c-.0730515.0089569-.1470165.002182-.220665-.0004082l-.1101933-.009037-.1078491-.025692c-.2889481-.0629005-.5492954-.2249031-.7450924-.4343948L20.562252 35.51688c.2891865.0346298.5324917.1033592.7876358.1126633.2481136.0151253.4990463.0650482.7575264.0295448.2564144-.0288391.512989-.0966873.7592354-.1971664.2483101-.0960693.4884796-.2238121.7119236-.3766289L23.6026058 35.1118088z"
      transform="matrix(1, 0, 0, 1, 0, 0)" data-uid="o_f4215bn59_32"></path>
    <path fill="#e08637" transform="matrix(1, 0, 0, 1, 0, 0)" data-type="circle" data-cx="21.229" data-cy="33.83"
      data-r="0.854" d="M21.229 33.83m-0.854 0a0.854 0.854 0 1 0 1.708 0a0.854 0.854 0 1 0 -1.708 0"
      data-uid="o_f4215bn59_33"></path>
    <path fill="#e08637"
      d="M17.9484081 37.6659584c.7053661-.1500778 1.8924541-.0524025 2.1427631.7310219l-.0246696.0212059c-.8534336-.3507805-1.0246944-.6580467-2.1147575-.7198524L17.9484081 37.6659584zM18.0627708 40.7782402c.2129192.0211296.4279423.0170364.6351795-.0174026.2077541-.028038.4091511-.0856476.5952549-.1693077.188488-.0820961.3463097-.2083092.5181541-.3095436.0907669-.045887.1712875-.1072884.2642803-.1586761.0913639-.0536346.1765709-.1172295.2859287-.1665993l.025423.020298c-.0715427.2211151-.2063637.4181404-.3839664.567955-.1722412.1606636-.4057751.2305756-.6238174.2922783-.2207432.0612717-.4476433.0895805-.6714058.0860062-.2238026-.0085258-.4447441-.0400658-.653492-.1135826L18.0627708 40.7782402zM19.5950241 36.3840408c-.1531792 1.4479866-.5850677.8456612-2.6179352.5873833-.2001266-.0260391-.3986244-.0292969-.6020088-.0179062-.0911255.0048866-.1903934.0130196-.292881.0097618-.0390472-.0455513-.0715809-.091114-.0960112-.138298.1138868-.0227814.2261858-.0634575.3498449-.0976181.7505569-.2120132 1.3923855.0392227 1.9280567.2033844.9148045.2677383 1.0383148.3750839 1.2317066-.562973.0413437-.1973534.0618858-.3782768.0309048-.5678482-.0032578-.0032539-.0065155-.0065117-.0081043-.0081329 0 0 .0048466-.0016289.0048466-.0032578l-.0292759-.0130196c.0016289-.0130157.0260181-.0227814.0374184-.0162659C19.6263428 35.8065338 19.6056423 36.2840385 19.5950241 36.3840408z"
      transform="matrix(1, 0, 0, 1, 0, 0)" data-uid="o_f4215bn59_34"></path>
    <path fill="#f1ba2d"
      d="M47.9077606 24.571497c-.6524963-2.5610123-1.8321228-4.8633232-3.5584259-6.6644955-3.6446266-3.6723042-7.4210587-4.2238741-11.3081589-2.1835279l-5.369339 3.0100851-7.4406013 3.1890583-.2424316.1041355c-.0488205.0211525-.0943832.0439339-.1383171.0715904-.1285057.0813541-.2342892.1919937-.3123856.3221588-.0894966.1513252-.2196712.2749748-.3742352.3579578l-4.2434187 2.2795296c-.2196312.1187744-.3709373.3042622-.4474449.5141621-.0227613.063448-.0406771.1285343-.0487804.19524-.0471916.3156528.0585527.6524582.3319292.885128 1.2381802 1.052721 2.6976604 2.0403557 4.3459053 2.969408l6.0201702 3.047514 3.1044273 1.2805061c.2587204.1057549.5532284.0553131.7631283-.1285439l.6589317-.5841141c.1789951-.1578331.4637318-.0650864.5141811.1692123.8981133 4.0762901 3.6039886 6.2677803 6.6872444 6.4301949.8256912.0428848 1.5717812-.1038818 1.5717812-.9306908-.0323906-1.7856102 1.621254-2.8450737 3.0572357-2.4308472 2.4585228.7126579 4.5265274-.766346 6.1161804-5.2879887C48.3438072 29.060585 48.4642067 26.7566547 47.9077606 24.571497zM26.9054928 20.6681499c1.3634682-.920929 2.175375-.3839874 2.175375-.3839874 1.4383469.7565842 1.7848949 2.4438572 1.770277 3.0523815-.0032578.1740971-.1643372.3010139-.3351879.2700996-1.3895264-.2424316-2.2665005-1.8695049-2.5528679-2.4861717-.1366882-.2961292-.4490738-.47999-.7744884-.439312-.0813522.0113907-.1659641.029295-.2538319.0536957C26.8940907 20.7446175 26.8697014 20.6909313 26.9054928 20.6681499zM29.9435158 53.2352753c.015192.2535324.1762199.3530502.3005562.3217125.1211243-.030529.0845604-.1049538.6175175-.3715439.5663605-.2833023.921257-.4908714 1.2704525-.5070992.1464729-.0068054.1820755.0412827.2231178.1423721.1321526.3254738.6191368 1.3501625.8723564 1.5179863.1538391.1019554.525444.0870361.6260605.0431976.1030273-.0448875.2406044-.2430725.2342682-.4795609-.0052147-.1945839-.1018372-.3728714-.1775322-.5522079-.4269562-1.0115395-.0787506-1.7325211-.0941391-2.1662178-.0060272-.1698418-.0830078-.5632286-.3298912-.4980125-.1051941.0277901-.1527138.1484528-.2201195.2220497C32.6393509 51.5923233 29.8661289 51.9438515 29.9435158 53.2352753z"
      transform="matrix(1, 0, 0, 1, 0, 0)" data-uid="o_f4215bn59_35"></path>
    <path fill="#f1ba2d" d="M41.9669037 42.5162125c-0.2921257-0.3768501-0.668087-0.6890907-1.1149406-0.8554573
							c-0.7960587-0.2963791-1.4187813-0.0174103-1.8177261 1.0043373
							c-0.2500381 0.7053413-0.1738091 1.5602264 0.1355743 2.5219612
							c-3.6050262-2.3896103-0.1937218-6.9407463 3.0399742-4.4492874c0.7270508 0.5601692 1.2479286 1.3401604 1.5725632 2.1986542
							c0.9202499 2.4336014 0.0424309 4.3359604-1.9414101 5.9115486c-2.54002 1.9705544-4.9715919 1.9705658-7.2947197 0
							c-1.7930984-1.4866676-2.6800213-3.0509262-3.0463123-5.6357765c-0.1850224-1.305687-0.0138664-2.0321617 0.1718178-6.1198273
							l0.9355755 0.2365494c-0.0912476 4.0080605 0.2406616 7.317337 1.8168907 9.2682686
							c1.8367348 2.1996498 4.328167 2.6156807 6.814724 0.6227951
							C42.6728935 46.0706978 43.2355385 44.1527901 41.9669037 42.5162125z" transform="matrix(1, 0, 0, 1, 0, 0)"
      data-uid="o_f4215bn59_36"></path>
    <path fill="#f1ba2d" d="M44.0910416 42.0726509c-0.1271439-0.2996216-0.8213806-1.0495644-0.9093208-1.3505363
							c-0.0580254-0.1986046 0.0002556-0.3940315 0.2396202-0.4726944c0.2696342-0.0886116 0.572113-0.0168266 0.8147812 0.1303673
							c0.3555603 0.2156754 0.8227997 0.7978897 0.9862213 1.0979042c0.393177 0.7218056 0.2179108 1.318718-0.0410309 1.9606934
							c-0.1019402 0.2527313-0.2079163 0.511879-0.3950958 0.7100449c-0.3678665 0.3893929-1.0268173 0.4190941-1.1072884 0.260025
							c-0.0503731-0.0995712-0.0097122-0.3808136 0.0165329-0.4927673c0.0423698-0.180748 0.167263-0.3240814 0.2529068-0.4845047
							C44.1304092 43.0901756 44.2418175 42.4279633 44.0910416 42.0726509z" transform="matrix(1, 0, 0, 1, 0, 0)"
      data-uid="o_f4215bn59_37"></path>
    <path fill="#f1ba2d" d="M44.5930519 47.2673759c0.6786156-0.5619164 0.1753082-1.6494255 0.5952682-2.3611488
							c0.3058739-0.5183754 1.0157051-0.6367149 1.2526741-0.4549141c0.0779228 0.0597839 0.1365089 0.1683502 0.292778 0.4070854
							c0.1001015 0.1529312 0.2481003 0.3267479 0.4261818 0.2855606c0.1330643-0.030777 0.2111397-0.1795158 0.2080994-0.3160591
							c-0.0043335-0.1946526-0.0981331-0.3229561-0.5903587-1.2742233c-0.2376404-0.459259-0.4023285-0.6291122-1.117363-0.6504288
							c-0.2354965-0.007019-0.3286781 0.0114479-0.5348854 0.1675758c-0.5779991 0.4376297-1.0063934 1.0692787-1.1991882 1.7681618
							c-0.2351723 0.8524971-0.0028572 0.3947754-0.9023056 2.1429596
							c-0.0674706 0.1311378-0.3944016 0.5780334-0.3367195 0.7128296
							C42.815712 47.9950256 44.3246765 47.4896011 44.5930519 47.2673759z" transform="matrix(1, 0, 0, 1, 0, 0)"
      data-uid="o_f4215bn59_38"></path>
    <path fill="#f1ba2d"
      d="M42.696373 48.5040779c.2009621.0809364.4230156.0876045.639637.0911942.8355484.013855 1.7474403-.0158768 2.3686295-.6259918.1664314-.1634636.232666-.2955856.2828293-.5369759.0777283-.3740387.1060677-1.1332245.0254669-1.4458351-.085701-.332386-.3058395-.4247894-.4594078-.3696518-.0824203.0295906-.7158394.5610237-.8674622.7759171-.3798294.5383224-.056427.6487503-1.4937973 1.3030777-.2288437.1041756-.6008415.1944427-.785965.3636742C42.2188339 48.2308617 42.5398941 48.4410553 42.696373 48.5040779zM44.4359322 51.4514618c.1529922-.2304916.1858673-.5189514.1952744-.7954407.020237-.5948906-.0707932-.8219299-.3030548-1.2341652-.2619858-.4649963-.404171-.4340324-.9110641-.4530334-.2040405-.0076523-.4067039-.0466728-.6108208-.0413475-.5741615.0149727-1.0739174.3704071-1.601078.598423-1.5921059.6886444-3.3577232.1984558-4.0257759.5622063-.0046577.0979118.0516624.1870842.1058083.268795.6501846.9811897.7594681 1.1807823.9938507 1.3557091.454113.3389091 1.9041862.5746193 2.6857414.0421562.474926-.3235626.8707619-1.0544052 1.4794426-1.4680786.4818687-.3274956.9066353-.2529526 1.2250938.0935593.3483009.3789825.0909271.6128082-.0406303.8717918-.0977249.1923752-.0693817.4579849.1704941.4989281C44.0493279 51.7936592 44.2983818 51.6586914 44.4359322 51.4514618z"
      transform="matrix(1, 0, 0, 1, 0, 0)" data-uid="o_f4215bn59_39"></path>
    <path fill="#cb6030" d="M33.3335037 15.5753241c0.0909653 1.8844614 0.2782211 3.760869 0.5993462 5.6121511
						c0.3248596 1.850071 0.7870827 3.6749363 1.418644 5.4407635c0.624733 1.7680817 1.4184456 3.4750767 2.3523445 5.1036396
						c0.9371948 1.6271343 2.0112762 3.1773014 3.1882439 4.6523113c-1.2728996-1.3924141-2.4248009-2.9034767-3.4068031-4.5230217
						c-0.9868889-1.6163559-1.8033638-3.3384094-2.4402504-5.1240978c-0.6324768-1.787466-1.0860786-3.6367817-1.3619194-5.5093746
						C33.401947 19.3554287 33.2987061 17.4614544 33.3335037 15.5753241z" transform="matrix(1, 0, 0, 1, 0, 0)"
      data-uid="o_f4215bn59_40"></path>
    <path fill="#e08637" d="M27.5046749 35.5902748c0.0546474 0.3066254 0.1102524 0.6164894 0.2342033 0.9022217
							c0.3834667 0.8839684 1.3707199 1.3832321 2.3311539 1.4607811c0.9604321 0.0775452 1.9113255-0.1911926 2.8374271-0.4572411
							c-0.2873802-0.3738518-0.8535919-0.3041306-1.3244972-0.2795906c-1.6173019 0.0842743-2.755228-0.8495903-2.9632797-1.9677429
							c-0.1164627-0.6259232 0.0542908-2.080555-0.9489136-2.1079865
							C26.7296486 33.1149864 27.420187 35.1162224 27.5046749 35.5902748z" transform="matrix(1, 0, 0, 1, 0, 0)"
      data-uid="o_f4215bn59_41"></path>
    <path fill="rgba(224,134,55,1)" d="M28.1272678 39.085701c-0.181345 0.4883881-0.0849895 0.9510155 0.1191349 1.4312172
							c0.8632374 2.0307579 2.2132874 1.93507 1.7778053 2.5506477c-0.5503578 0.7779579-1.7631798 0.5766563-2.5354233 1.3237267
							c-0.0726357 0.0702667-0.0839844 0.1205826-0.0084648 0.202507c0.2974529 0.3226814 0.6337643 0.3294907 1.0196495 0.2805748
							c1.2306709-0.1559982 1.5244236-0.2560272 2.5460987-0.8073769c0.6618977-0.3571892 0.9365311-0.6950111 0.5515614-1.6575165
							c-0.5262184-1.3156548-1.1066475-1.1925812-1.5326385-2.0426331c-0.1465187-0.2923698-0.1477432-0.6518936-0.0091457-0.948101
							c0.2835522-0.6060066 0.4498787-0.6961288 1.4285469-0.962635c1.1823483-0.3219681 1.3136044-0.3340759 1.4543133-0.4892731
							c0.3082161-0.3399582-0.0048256-0.9862251-0.7473183-0.9247322c-0.4155998 0.03442-0.7952728 0.2576981-1.1903725 0.3753281
							C30.1381149 37.6743393 28.5684357 37.8975754 28.1272678 39.085701z" transform="matrix(1, 0, 0, 1, 0, 0)"
      data-uid="o_f4215bn59_42"></path>
    <path fill="#f1ba2d" d="M30.9487038 47.5235405c0.66078 0.1840897 1.2035637 0.7417755 1.3696899 1.407299
						c0.0496292 0.1988182 0.0677376 0.404541 0.1189613 0.6029549c0.1441116 0.5581894 0.5636482 1.038105 1.0975685 1.2555275
						c0.7791824 0.3172951 1.7106628 0.0860367 2.4683914 0.4516144c0.189518 0.0914345 0.3847809 0.295002 0.2930145 0.4843597
						c-0.3301773-0.0323029-0.6657219-0.009407-0.9883385 0.0680809c-0.1576691 0.0378685-0.2935905 0.156044-0.3208466 0.3158913
						c-0.051342 0.3010979 0.2801933 0.4317322 0.5470772 0.4802856c0.5343895 0.0972137 1.1153107 0.1488647 1.5942268-0.1073761
						c0.0029335-0.0015678 0.0058556-0.0031471 0.0087776-0.004734c0.6132011-0.3338051 0.8649025-1.0875053 0.6202202-1.741394
						c-0.2980614-0.7965393-0.9939003-1.7474365-1.2802277-1.9873657c-0.1901627-0.1593513-0.2127838-0.0631828-1.8800888-1.4065514
						c-0.3727722-0.3079948-0.7782021-0.6009674-1.0658607-0.9949684c-0.448658-0.6145172-0.546669-1.3744354-1.5139046-1.9513435
						c-0.2466927-0.1471367-0.3647327-0.1254158-0.6338215 0.0199852c-0.4813042 0.2600746-0.657959 0.4175339-0.716959 0.8661766
						c-0.0645275 0.4906693-0.1595821 1.7824364 0.0195885 2.2381096c0.0686722 0.1746483 0.1995888 0.3336029 0.3774452 0.3934822
						L30.9487038 47.5235405z" transform="matrix(1, 0, 0, 1, 0, 0)" data-uid="o_f4215bn59_43"></path>
    <path fill="#cb6030" d="M38.4202919 38.9515686c0 0.0601997-0.0048866 0.1155167-0.0162888 0.1675835
								c-1.6797562 0.2226906-4.2870369-0.6133385-5.9469604-2.6439934
								c-0.9469261-1.1568489-1.6156712-2.5935555-1.9850197-4.272686c-0.0195045-0.0894966-0.082983-0.1594582-0.1708508-0.1887474
								c-0.0862389-0.0276566-0.1773243-0.0081329-0.2456894 0.0520706l-0.7044945 0.6231689
								c-0.2456913 0.2163963-0.598753 0.2765961-0.8997765 0.1513176l-3.3192139-1.3683739l-6.4399662-3.2606506
								c-1.4530048-0.8184223-2.7514067-1.6710072-3.8757-2.5447445c-0.0601807-0.0471821-0.1187725-0.0943623-0.1773653-0.139925
								c0.0667362-0.0146484 0.1318026-0.0325451 0.1968699-0.0520687c0.0569639 0.0455627 0.1155558 0.091116 0.1757364 0.1366787
								c1.0950174 0.842823 2.3543692 1.6661205 3.7569265 2.4568768l6.4318237 3.2557735l3.3126984 1.366745
								c0.2456894 0.1008797 0.530426 0.0520592 0.7289257-0.1236572l0.7061634-0.6231728
								c0.11063-0.0992489 0.2619762-0.1301632 0.403511-0.0846119c0.1432037 0.0471916 0.2473183 0.1627064 0.2798519 0.3091488
								c0.9363918 4.2472191 3.7426758 6.6330643 7.0712509 6.8076668
								C37.9761009 38.9906158 38.2169075 38.9824829 38.4202919 38.9515686z" transform="matrix(1, 0, 0, 1, 0, 0)"
      data-uid="o_f4215bn59_44"></path>
    <path fill="#cb6030" d="M31.2871876 23.4065075c-0.012989-0.3286629-0.0536652-0.6589642-0.1318016-0.9811211
							c-0.1561928-0.6443233-0.4653206-1.2593517-0.9241657-1.7507324
							c-0.2294044-0.2456894-0.4881229-0.4637108-0.7712307-0.6459427c-0.0699539-0.0471916-0.1415348-0.091116-0.2147865-0.1301727
							l-0.055294-0.0309162c-0.0195446-0.0113792-0.0439339-0.0227699-0.0634785-0.0309048
							c-0.042305-0.0179043-0.082983-0.0325432-0.125288-0.0455627c-0.1659641-0.0504379-0.3367748-0.0748482-0.5076256-0.08461
							c-0.6866207-0.0357914-1.352108 0.1887455-1.9362411 0.5092735c-0.2960987 0.1578312-0.5727329 0.3530827-0.8379269 0.5466957
							c-0.2603474 0.1871166-0.5499306 0.335186-0.8493271 0.4588356c-0.6020088 0.2489471-1.2430649 0.3937588-1.8890495 0.5011406
							c-0.90625 0.139925-1.8288269 0.2001266-2.7497368 0.2001266l-0.2424316 0.1041355
							c-0.0488205 0.0211525-0.0943832 0.0439339-0.1383171 0.0715904c0.3937778 0.006506 0.7875175 0.0016289 1.1796284-0.0130177
							c0.6622295-0.0260296 1.3228302-0.0813541 1.9785461-0.187109c0.655714-0.1073914 1.3081322-0.2554512 1.9296856-0.5109024
							c0.3091679-0.1269073 0.6101513-0.2831097 0.8851585-0.4799881c0.2684498-0.1952515 0.5320148-0.3807297 0.8183823-0.5353031
							c0.5662174-0.3091488 1.2024288-0.5206661 1.8418579-0.4864941c0.1578197 0.0081329 0.3156414 0.0341625 0.4637318 0.0797253
							c0.0374184 0.0113907 0.0732098 0.0244007 0.1090012 0.0390472c0.0179138 0.0081348 0.0325336 0.0130196 0.0488186 0.0227814
							l0.0520382 0.0292873c0.0716209 0.0374184 0.1415749 0.0780964 0.2115269 0.1187725
							c0.2798519 0.1627083 0.5369434 0.3628445 0.7679749 0.5889988c0.4637318 0.4555893 0.7972889 1.0413322 0.976244 1.672636
							c0.0894966 0.3156528 0.1464596 0.6410675 0.1611176 0.9713593c0.0048466 0.0813522 0.0048466 0.1643353 0.0064754 0.2456894
							c0.0016289 0.0829811-0.0048866 0.1659641-0.0439339 0.2391834c-0.0488205 0.0943642-0.1399059 0.1643276-0.2424335 0.1936226
							c0.1041565-0.0260391 0.1968708-0.0943737 0.2489471-0.1903744c0.040678-0.0732098 0.0488205-0.1594505 0.0471916-0.2424316
							C31.2920742 23.5724716 31.2920742 23.4894886 31.2871876 23.4065075z M29.6926498 23.6814823
							c-0.3498058-0.1984978-0.6638203-0.4555779-0.9453392-0.7403164
							c-0.2814808-0.2863655-0.5271301-0.6036377-0.7451725-0.9388142
							c-0.2180424-0.3335571-0.4132843-0.6882591-0.5629616-1.0510921c-0.0016289-0.006506-0.0048866-0.0113907-0.0097713-0.0162678
							c-0.0162868-0.0244102-0.042305-0.0374279-0.0699539-0.0374279c-0.0179157 0-0.0358295 0.0048847-0.0504475 0.0162754
							c-0.5499325 0.3872452-1.1031609 0.7679749-1.687294 1.0966454c-0.5808372 0.3319206-1.1844749 0.6280479-1.8092842 0.8607178
							c-0.62644 0.2343006-1.2756405 0.4051399-1.9362411 0.4816189c-0.6605625 0.0797234-1.3325634 0.055315-1.9817638-0.082983
							c-0.0227623-0.0048866-0.0471916 0-0.0666962 0.0130196h-0.0016289
							c-0.4555874 0.2879848-0.9176502 0.5694752-1.4025555 0.808651c-0.4799786 0.2473183-0.9729862 0.4702263-1.4740982 0.6703529
							c-0.502779 0.2017555-1.0120735 0.3839855-1.5278435 0.5418167c-0.195241 0.0602016-0.3888531 0.1171455-0.585762 0.1708412
							c-0.0650673 0.0195236-0.1301336 0.0374203-0.1968699 0.0520687c-0.055295 0.0162659-0.1106291 0.0309143-0.1659641 0.0455627
							c-0.0227613 0.063448-0.0406771 0.1285343-0.0487804 0.19524c0.1318026-0.0325336 0.2619362-0.0667057 0.3921099-0.1008778
							c0.0651073-0.0178947 0.1301737-0.0357914 0.195241-0.055315c0.154604-0.0439339 0.3091679-0.0894966 0.4621029-0.1366787
							c0.5222845-0.1594505 1.0364256-0.3433094 1.5424623-0.5466938c0.5060368-0.2017555 1.003891-0.4279213 1.4887562-0.6768684
							c0.4783897-0.237545 0.9355659-0.5141506 1.3862686-0.7988873c0.6589737 0.1366787 1.3390789 0.1578197 2.0045662 0.0780964
							c0.6784763-0.0780964 1.3423347-0.2538242 1.9785061-0.4913692c0.6378384-0.2375565 1.2479916-0.5369434 1.8369713-0.8737373
							c0.558075-0.3205395 1.0999031-0.6687355 1.6156712-1.0510941c0.1627083 0.3400536 0.3579884 0.6557064 0.5727329 0.9583492
							c0.2375469 0.3302898 0.5060387 0.6378098 0.8038044 0.9144135c0.2960987 0.2766056 0.6247711 0.5190372 0.9811306 0.7094021
							c0.3546906 0.1952515 0.7402859 0.3303013 1.1372833 0.398634
							C30.4264603 24.0199165 30.0424938 23.8816185 29.6926498 23.6814823z" transform="matrix(1, 0, 0, 1, 0, 0)"
      data-uid="o_f4215bn59_45"></path>
    <path fill="#e08637" d="M49.8080292 26.5417118c0 0.6090488-0.4940224 1.101181-1.0992851 1.101181
							c-0.6090355 0-1.1011925-0.4921322-1.1011925-1.101181c0-0.2677498 0.0961647-0.5147591 0.2564583-0.705204
							l-1.0860939-4.1897469c-0.5298576-0.0773144-0.9371262-0.5336208-0.9371262-1.0860939
							c0-0.6071491 0.4939995-1.0992928 1.1011467-1.0992928c0.6052856 0 1.099308 0.4921436 1.099308 1.0992928
							c0 0.2206097-0.0641289 0.4223671-0.1753464 0.5939617l1.1200218 4.3255138
							C49.4573135 25.6008091 49.8080292 26.0307274 49.8080292 26.5417118z" transform="matrix(1, 0, 0, 1, 0, 0)"
      data-uid="o_f4215bn59_46"></path>
  </g>
  <path text="Andrew" fill="#efeadc" space="preserve" text-anchor="middle" offset="0.5" font-scale="contain"
    font-size="48" font-family="Asset"
    transform="matrix(0.647858738899231, 0, 0, 0.8695691227912903, 255.5414276123047, 324.0606994628906)"
    data-fl-textpath="" font-weight="400" font-style="normal" data-uid="o_f4215bn59_47"
    d="M-208.65296875 0L-208.65296875-2.2Q-207.97296875-2.2 -206.80296875-2.6Q-205.63296875-3 -204.22296875-3.88Q-202.81296875-4.76 -201.29296875-6.14Q-199.77296875-7.52 -198.36296875-9.52L-198.36296875-9.52L-183.78296875-30.26L-160.13296875-30.26L-147.36296875-10.03Q-146.02296875000002-7.92 -144.45296875-6.43Q-142.88296875-4.95 -141.35296875-4.01Q-139.81296874999998-3.07 -138.47296875-2.64Q-137.12296874999998-2.2 -136.20296875-2.2L-136.20296875-2.2L-136.20296875 0L-181.23296875 0L-181.23296875-2.2Q-180.20296875-2.2 -179.18296875-2.48Q-178.16296875-2.77 -177.35296875-3.34Q-176.54296875-3.91 -176.05296875-4.78Q-175.56296875-5.65 -175.56296875-6.82L-175.56296875-6.82Q-175.56296875-7.31 -175.79296875-8.11L-175.79296875-8.11L-194.47296875-8.11Q-194.59296875-7.78 -194.63296875-7.52Q-194.68296875-7.27 -194.68296875-7.03L-194.68296875-7.03Q-194.68296875-5.84 -194.19296875-4.93Q-193.70296875-4.03 -192.89296875-3.42Q-192.08296875-2.81 -191.06296875-2.51Q-190.04296875-2.2 -188.99296875-2.2L-188.99296875-2.2L-188.99296875 0L-208.65296875 0ZM-192.76296875-11.37L-177.20296875-11.37Q-177.69296875-12.3 -178.34296875-13.54Q-179.00296875-14.77 -179.89296875-16.34Q-180.78296875-17.91 -181.90296875-19.85Q-183.01296875-21.8 -184.41296875-24.19L-184.41296875-24.19Q-186.03296875-21.75 -187.34296875-19.78Q-188.66296875-17.81 -189.68296875-16.24Q-190.70296875-14.67 -191.46296875000002-13.48Q-192.22296875-12.28 -192.76296875-11.37L-192.76296875-11.37ZM-133.86109375 0L-133.86109375-2.2Q-130.93109375-2.32 -128.87109375-2.95Q-126.81109375-3.59 -125.51109375-4.76Q-124.21109375-5.93 -123.61109375-7.64Q-123.01109375-9.35 -123.01109375-11.65L-123.01109375-11.65Q-123.01109375-14.53 -123.62109375-16.3Q-124.23109375-18.07 -125.54109375-19.03Q-126.85109375-19.99 -128.91109375-20.32Q-130.96109375-20.65 -133.86109375-20.65L-133.86109375-20.65L-133.86109375-22.85L-102.41109374999999-24.96L-102.41109374999999-21.09Q-100.30109375-22.03 -98.08109375000001-22.85Q-95.87109375-23.67 -93.56109375-24.28Q-91.25109375-24.89 -88.86109375000001-25.24Q-86.47109375-25.59 -83.96109375-25.59L-83.96109375-25.59Q-82.67109375-25.59 -81.34109375-25.5Q-80.00109375-25.41 -78.73109375-25.04Q-77.45109375-24.68 -76.32109375-23.96Q-75.20109375-23.25 -74.37109375-22Q-73.53109375-20.74 -73.04109375-18.87Q-72.55109375-16.99 -72.55109375-14.34L-72.55109375-14.34Q-72.55109375-13.45 -72.61109375000001-12.53Q-72.67109375-11.6 -72.67109375-10.5L-72.67109375-10.5Q-72.67109375-8.44 -72.46109375-6.88Q-72.24109375-5.32 -71.39109375-4.29Q-70.53109375-3.26 -68.78109375-2.73Q-67.02109375-2.2 -63.92109375-2.2L-63.92109375-2.2L-63.92109375 0L-96.88109374999999 0L-96.88109374999999-1.78Q-96.13109374999999-2.27 -95.61109375000001-3.08Q-95.10109374999999-3.89 -94.78109375-5.06Q-94.46109375-6.23 -94.32109375-7.82Q-94.18109375-9.4 -94.18109375-11.44L-94.18109375-11.44Q-94.18109375-14.04 -94.55109375-15.59Q-94.91109374999999-17.13 -95.54109375-17.94Q-96.17109375-18.75 -97.03109375-18.98Q-97.89109375000001-19.22 -98.87109375-19.22L-98.87109375-19.22Q-99.69109375-19.22 -100.59109375-19.04Q-101.49109375-18.87 -102.41109374999999-18.56L-102.41109374999999-18.56L-102.41109374999999-11.02Q-102.41109374999999-8.98 -102.27109375-7.46Q-102.13109374999999-5.95 -101.81109375-4.85Q-101.49109375-3.75 -100.98109375-3.01Q-100.46109375-2.27 -99.71109375-1.78L-99.71109375-1.78L-99.71109375 0L-133.86109375 0ZM-60.92421875-12.23L-60.92421875-12.23Q-60.92421875-15.68 -59.52421875-18.2Q-58.11421875-20.72 -55.69421875-22.36Q-53.28421875-24 -50.08421875-24.8Q-46.88421875-25.59 -43.32421875-25.59L-43.32421875-25.59Q-40.62421875-25.59 -38.46421875-25.38Q-36.29421875-25.17 -34.52421875-24.75Q-32.75421875-24.33 -31.314218750000002-23.72Q-29.874218749999997-23.11 -28.60421875-22.34L-28.60421875-22.34L-28.60421875-22.88Q-28.60421875-25.22 -29.21421875-26.73Q-29.82421875-28.24 -31.134218750000002-29.11Q-32.444218750000005-29.98 -34.50421875-30.3Q-36.554218750000004-30.63 -39.454218749999995-30.63L-39.454218749999995-30.63L-39.454218749999995-32.81L-7.534218750000001-34.92L-7.534218750000001-10.97Q-7.534218750000001-9.45 -7.444218749999997-8.21Q-7.344218750000003-6.98 -7.024218750000003-6.04Q-6.694218749999997-5.09 -6.084218749999998-4.39Q-5.474218749999999-3.7 -4.454218750000003-3.23Q-3.4342187499999994-2.77 -1.9442187499999974-2.5Q-0.45421875000000256-2.23  1.655781250000004-2.16L 1.655781250000004-2.16L 1.655781250000004 0.05Q 0.05578125000000256 0.05 -2.1942187499999974 0.07Q-4.444218749999997 0.09 -6.984218749999997 0.14Q-9.524218750000003 0.19 -12.174218750000001 0.23Q-14.82421875 0.28 -17.22421875 0.33Q-19.624218749999997 0.38 -21.624218749999997 0.4Q-23.61421875 0.42 -24.804218749999997 0.42L-24.804218749999997 0.42Q-25.32421875 0.42 -25.82421875 0.16Q-26.334218749999998-0.09 -26.764218749999998-0.53Q-27.194218749999997-0.96 -27.57421875-1.54Q-27.944218749999997-2.11 -28.18421875-2.74L-28.18421875-2.74Q-29.054218749999997-1.95 -30.234218749999997-1.25Q-31.414218750000003-0.56 -33.16421875-0.05Q-34.91421875 0.47 -37.36421875 0.76Q-39.804218750000004 1.05 -43.18421875 1.05L-43.18421875 1.05Q-47.194218750000005 1.05 -50.47421875-0.01Q-53.75421875-1.08 -56.07421875-2.89Q-58.39421875-4.71 -59.66421875-7.13Q-60.92421875-9.54 -60.92421875-12.23ZM-38.14421875-12.33L-38.14421875-12.33Q-38.14421875-10.15 -37.96421875-8.41Q-37.79421875-6.68 -37.344218749999996-5.46Q-36.90421875-4.24 -36.17421875-3.6Q-35.444218750000005-2.95 -34.32421875-2.95L-34.32421875-2.95Q-32.49421875-2.95 -30.97421875-3.71Q-29.444218749999997-4.48 -28.60421875-5.77L-28.60421875-5.77L-28.60421875-19.31Q-29.40421875-20.04 -30.22421875-20.54Q-31.04421875-21.05 -31.82421875-21.35Q-32.61421875-21.66 -33.314218749999995-21.79Q-34.02421875-21.91 -34.60421875-21.91L-34.60421875-21.91Q-36.48421875-21.91 -37.314218749999995-19.55Q-38.14421875-17.18 -38.14421875-12.33ZM 3.8548437499999997 0L 3.8548437499999997-2.2Q 6.99484375-2.32  9.084843750000001-3.02Q 11.16484375-3.73  12.42484375-4.97Q 13.67484375-6.21  14.19484375-7.99Q 14.70484375-9.77  14.70484375-12.07L 14.70484375-12.07Q 14.70484375-14.41  14.09484375-16.09Q 13.48484375-17.77  12.17484375-18.83Q 10.86484375-19.9  8.81484375-20.39Q 6.76484375-20.88  3.8548437499999997-20.88L 3.8548437499999997-20.88L 3.8548437499999997-23.09L 35.30484375-25.2L 35.30484375-21.73Q 36.62484375-22.64  38.26484375-23.36Q 39.90484375-24.07  41.70484375-24.57Q 43.51484375-25.08  45.43484375-25.34Q 47.35484375-25.59  49.23484375-25.59L 49.23484375-25.59Q 52.13484375-25.59  54.25484375-25.1Q 56.37484375-24.61  57.77484375-23.71Q 59.16484375-22.8  59.83484375-21.55Q 60.50484375-20.3  60.50484375-18.77L 60.50484375-18.77Q 60.50484375-17.63  59.80484375-16.52Q 59.09484375-15.42  57.76484375-14.54Q 56.42484375-13.66  54.46484375-13.13Q 52.51484375-12.59  50.00484375-12.59L 50.00484375-12.59Q 47.73484375-12.59  45.89484375-12.94Q 44.05484375-13.29  42.73484375-13.93Q 41.42484375-14.58  40.71484375-15.47Q 39.99484375-16.36  39.99484375-17.44L 39.99484375-17.44Q 39.99484375-18.7  40.75484375-19.63Q 41.51484375-20.55  42.72484375-21.15Q 43.93484375-21.75  45.41484375-22.05Q 46.88484375-22.36  48.31484375-22.38L 48.31484375-22.38Q 46.16484375-22.38  44.39484375-22.2Q 42.62484375-22.01  41.07484375-21.62Q 39.52484375-21.23  38.12484375-20.61Q 36.71484375-19.99  35.30484375-19.13L 35.30484375-19.13L 35.30484375-12.28Q 35.30484375-9.77  35.90484375-7.93Q 36.50484375-6.09  37.88484375-4.86Q 39.26484375-3.63  41.54484375-2.99Q 43.81484375-2.34  47.19484375-2.2L 47.19484375-2.2L 47.19484375 0L 3.8548437499999997 0ZM 64.06796875-11.67L 64.06796875-11.67Q 64.06796875-14.04  65.07796875-16Q 66.07796875-17.95  67.91796875-19.5Q 69.75796875-21.05  72.38796875-22.2Q 75.00796875-23.34  78.23796875-24.09Q 81.45796874999999-24.84  85.20796874999999-25.22Q 88.95796874999999-25.59  93.07796875-25.59L 93.07796875-25.59Q 98.58796875-25.59  103.06796875-24.82Q 107.54796875-24.05  110.71796875-22.42Q 113.89796874999999-20.79  115.62796875000001-18.23Q 117.36796875-15.68  117.36796875-12.12L 117.36796875-12.12L 86.79796875-12.12Q 86.96796875-9.4  87.72796875-7.52Q 88.48796875-5.65  89.92796875-4.49Q 91.36796875-3.33  93.50796875-2.82Q 95.63796875-2.32  98.51796875-2.32L 98.51796875-2.32Q 100.32796875-2.32  102.18796875000001-2.5Q 104.04796875-2.67  105.80796875-3.04Q 107.56796875-3.4  109.11796875-3.93Q 110.65796875000001-4.45  111.80796875-5.17Q 112.95796874999999-5.88  113.62796875000001-6.76Q 114.29796875-7.64  114.29796875-8.7L 114.29796875-8.7L 117.36796875-8.7Q 117.36796875-6.96  116.43796875000001-5.58Q 115.50796875-4.2  113.86796875-3.11Q 112.22796875-2.02  109.98796875-1.23Q 107.75796875-0.45  105.11796875 0.06Q 102.47796875 0.56  99.57796875 0.81Q 96.66796875 1.05  93.68796875000001 1.05L 93.68796875000001 1.05Q 86.96796875 1.05  81.48796875 0.4Q 76.01796875-0.26  72.14796875-1.76Q 68.28796875-3.26  66.17796875-5.68Q 64.06796875-8.11  64.06796875-11.67ZM 86.77796875-14.74L 96.26796875-14.74Q 96.26796875-16.88  95.92796874999999-18.39Q 95.58796875-19.9  95.01796875-20.86Q 94.43796875000001-21.82  93.64796874999999-22.28Q 92.84796875-22.73  91.93796875-22.73L 91.93796875-22.73Q 90.92796875-22.73  90.02796875-22.28Q 89.11796875-21.82  88.42796875-20.85Q 87.73796875-19.88  87.30796875-18.36Q 86.86796875-16.85  86.77796875-14.74L 86.77796875-14.74ZM 159.50328125 0L 137.28328125000002 0Q 136.72328125-1.22  136.00328125-2.89Q 135.29328125-4.57  134.48328125-6.46Q 133.67328125-8.34  132.79328125-10.3Q 131.91328125-12.26  131.02328125-14.03Q 130.13328125-15.8  129.27328125-17.24Q 128.40328125-18.68  127.63328125-19.55L 127.63328125-19.55Q 126.92328125-20.3  126.00328125-20.82Q 125.07328125-21.35  124.11328125-21.69Q 123.15328125-22.03  122.22328125-22.18Q 121.30328125-22.34  120.59328125-22.34L 120.59328125-22.34L 120.59328125-24.54L 155.05328125-24.54L 155.05328125-22.34Q 153.38328125-22.34  152.41328125-21.83Q 151.44328124999998-21.33  151.44328124999998-20.48L 151.44328124999998-20.48Q 151.44328124999998-20.04  151.68328125-19.02Q 151.93328125-18  152.36328125-16.61Q 152.80328125-15.21  153.37328125-13.54Q 153.95328125-11.86  154.63328125-10.11Q 155.31328125-8.37  156.06328125-6.63Q 156.81328125-4.9  157.56328125-3.4L 157.56328125-3.4Q 158.02328125-4.36  158.61328125-5.75Q 159.20328125-7.15  159.78328125000002-8.73Q 160.37328125-10.31  160.93328125-11.98Q 161.49328125-13.64  161.93328125-15.15Q 162.36328125-16.66  162.63328125-17.89Q 162.90328125-19.13  162.90328125-19.88L 162.90328125-19.88Q 162.90328125-20.7  162.65328125-21.18Q 162.41328125-21.66  161.89328125-21.91Q 161.38328125-22.17  160.60328125-22.25Q 159.83328125-22.34  158.75328125-22.34L 158.75328125-22.34L 158.75328125-24.54L 190.34328125000002-24.54L 190.34328125000002-22.34Q 188.21328125-22.34  187.17328125-21.73Q 186.13328124999998-21.12  186.13328124999998-20.27L 186.13328124999998-20.27Q 186.13328124999998-19.85  186.37328125-18.84Q 186.62328125-17.84  187.06328125-16.44Q 187.51328125-15.05  188.09328125000002-13.38Q 188.68328125-11.72  189.38328124999998-9.97Q 190.09328125000002-8.23  190.85328125-6.5Q 191.61328125-4.78  192.38328124999998-3.3L 192.38328124999998-3.3Q 192.83328125-4.17  193.44328124999998-5.64Q 194.05328125-7.1  194.70328125-8.82Q 195.36328125-10.55  195.99328125-12.38Q 196.63328124999998-14.2  197.13328124999998-15.79Q 197.63328124999998-17.37  197.95328125-18.55Q 198.27328125-19.73  198.27328125-20.18L 198.27328125-20.18Q 198.27328125-20.55  198.11328125-20.93Q 197.96328125-21.3  197.52328125-21.62Q 197.07328124999998-21.94  196.24328125-22.14Q 195.41328125-22.34  194.05328125-22.34L 194.05328125-22.34L 194.05328125-24.54L 210.06328125-24.54L 210.06328125-22.34Q 207.22328125-22.34  205.26328125-21.57Q 203.31328125-20.81  202.34328125000002-19.17L 202.34328125000002-19.17Q 201.78328125000002-18.19  201.07328124999998-16.66Q 200.35328125-15.14  199.58328125-13.35Q 198.81328125-11.55  198.03328125000002-9.62Q 197.26328125-7.69  196.56328125-5.88Q 195.85328125-4.08  195.29328125-2.54Q 194.73328125-1.01  194.38328124999998 0L 194.38328124999998 0L 172.11328125 0Q 171.78328125000002-0.77  171.34328125-1.92Q 170.89328125-3.07  170.38328125-4.42Q 169.86328125-5.77  169.29328125-7.25Q 168.71328125-8.74  168.11328125-10.16Q 167.52328125-11.58  166.93328125-12.87Q 166.34328125-14.16  165.78328125000002-15.14L 165.78328125000002-15.14Q 165.27328125-14.2  164.68328125-12.95Q 164.09328125-11.7  163.49328125-10.28Q 162.88328125-8.86  162.29328125-7.38Q 161.70328125-5.91  161.18328125-4.54Q 160.65328125-3.16  160.22328125-1.98Q 159.78328125000002-0.8  159.50328125 0L 159.50328125 0Z">
  </path>
  <g transform="matrix(0.13688749074935913, 0.09777126461267471, -0.09777126461267471, 0.13688749074935913, 184.30966186523438, 262.1425476074219)"
    data-uid="o_f4215bn59_48">
    <path transform="matrix(0.11373323947191238, 0, 0, 0.34717512130737305, 77.0877914428711, 81.40470123291016)"
      fill="rgba(245,212,81,1)" data-type="polygon" d="M71.7 0L0 184.34L71.7 368.69L143.41 184.34L71.7 0Z"
      data-uid="o_f4215bn59_49"></path>
    <path
      transform="matrix(6.96415351827276e-18, 0.11373323947191238, -0.34717512130737305, 2.1258344873627024e-17, 149.24302673339844, 137.2494659423828)"
      fill="rgba(245,212,81,1)" data-type="polygon" d="M71.7 0L0 184.34L71.7 368.69L143.41 184.34L71.7 0Z"
      data-uid="o_f4215bn59_50"></path>
  </g>
  <g transform="matrix(-0.03925852105021477, 0.09920919686555862, -0.09920919686555862, -0.03925852105021477, 364.6311950683594, 362.62548828125)"
    data-uid="o_f4215bn59_51">
    <path transform="matrix(0.11373323947191238, 0, 0, 0.34717512130737305, 77.0877914428711, 81.40470123291016)"
      fill="rgba(245,212,81,1)" data-type="polygon" d="M71.7 0L0 184.34L71.7 368.69L143.41 184.34L71.7 0Z"
      data-uid="o_f4215bn59_52"></path>
    <path
      transform="matrix(6.96415351827276e-18, 0.11373323947191238, -0.34717512130737305, 2.1258344873627024e-17, 149.24302673339844, 137.2494659423828)"
      fill="rgba(245,212,81,1)" data-type="polygon" d="M71.7 0L0 184.34L71.7 368.69L143.41 184.34L71.7 0Z"
      data-uid="o_f4215bn59_53"></path>
  </g>
</svg>
